<svg width="16" height="16" viewBox="0 0 16 16" fill="none" xmlns="http://www.w3.org/2000/svg">
<path d="M1.44978e-05 3.36842C1.44978e-05 2.90358 0.364014 2.52632 0.793614 2.52632H15.2064C15.6448 2.52632 16 2.90105 16 3.36842V15.1579C16 15.6227 15.636 16 15.2064 16H0.793614C0.688916 15.9998 0.585291 15.9778 0.488683 15.9353C0.392076 15.8928 0.304389 15.8307 0.230655 15.7525C0.15692 15.6742 0.0985897 15.5814 0.0590104 15.4794C0.0194312 15.3774 -0.000617688 15.2681 1.44978e-05 15.1579V3.36842ZM1.60001 4.21053V14.3158H14.4V4.21053H1.60001ZM9.60001 11.7895C10.2365 11.7895 10.847 11.5233 11.2971 11.0495C11.7471 10.5758 12 9.93318 12 9.26316C12 8.59314 11.7471 7.95056 11.2971 7.47678C10.847 7.00301 10.2365 6.73684 9.60001 6.73684C8.96349 6.73684 8.35304 7.00301 7.90295 7.47678C7.45286 7.95056 7.20001 8.59314 7.20001 9.26316C7.20001 9.93318 7.45286 10.5758 7.90295 11.0495C8.35304 11.5233 8.96349 11.7895 9.60001 11.7895ZM9.60001 13.4737C8.53914 13.4737 7.52173 13.0301 6.77158 12.2404C6.02144 11.4508 5.60001 10.3799 5.60001 9.26316C5.60001 8.14646 6.02144 7.07549 6.77158 6.28587C7.52173 5.49624 8.53914 5.05263 9.60001 5.05263C10.6609 5.05263 11.6783 5.49624 12.4284 6.28587C13.1786 7.07549 13.6 8.14646 13.6 9.26316C13.6 10.3799 13.1786 11.4508 12.4284 12.2404C11.6783 13.0301 10.6609 13.4737 9.60001 13.4737ZM1.60001 0H6.40001V1.68421H1.60001V0Z" fill="white"/>
</svg>
