<svg width="21" height="20" viewBox="0 0 21 20" fill="none" xmlns="http://www.w3.org/2000/svg">
<path d="M0 19.7942L1.50793 14.5183C0.291822 12.463 -0.0945471 10.0647 0.41972 7.7635C0.933987 5.46226 2.31439 3.41242 4.30763 1.99012C6.30087 0.567829 8.77324 -0.131511 11.2711 0.0204322C13.7689 0.172376 16.1246 1.16541 17.9059 2.81731C19.6873 4.46922 20.7747 6.66918 20.9688 9.01351C21.1628 11.3578 20.4504 13.6893 18.9623 15.58C17.4743 17.4707 15.3103 18.7939 12.8675 19.3068C10.4247 19.8196 7.86695 19.4877 5.66363 18.372L0 19.7942ZM5.93672 16.3977L6.28698 16.5929C7.8829 17.4815 9.7469 17.8493 11.5885 17.6388C13.4301 17.4283 15.1459 16.6515 16.4684 15.4293C17.791 14.2071 18.646 12.6083 18.9003 10.8819C19.1546 9.15559 18.7939 7.3987 17.8743 5.88507C16.9547 4.37144 15.528 3.18608 13.8164 2.51373C12.1048 1.84137 10.2046 1.71978 8.41176 2.1679C6.61895 2.61602 5.03429 3.60869 3.90472 4.9912C2.77516 6.37372 2.16415 8.06842 2.1669 9.81122C2.1654 11.2563 2.59082 12.6734 3.3958 13.9048L3.61546 14.245L2.77245 17.1897L5.93672 16.3977Z" fill="white"/>
<path fill-rule="evenodd" clip-rule="evenodd" d="M14.5089 11.2738C14.2947 11.1233 14.044 11.0174 13.7757 10.9642C13.5074 10.9109 13.2287 10.9116 12.9608 10.9664C12.5583 11.112 12.2982 11.6621 12.0381 11.9372C11.9833 12.0032 11.9027 12.0494 11.8115 12.0673C11.7203 12.0852 11.6247 12.0734 11.5427 12.0343C10.0691 11.5316 8.83388 10.6097 8.03773 9.41841C7.96982 9.34407 7.93768 9.24968 7.94808 9.15511C7.95848 9.06055 8.01059 8.97318 8.09346 8.91141C8.38354 8.66129 8.59653 8.3515 8.71272 8.01068C8.73851 7.63476 8.63963 7.2603 8.42786 6.93197C8.26414 6.47165 7.95256 6.06178 7.52994 5.75077C7.31196 5.66538 7.07028 5.63675 6.83403 5.66833C6.59779 5.69992 6.37709 5.79036 6.19855 5.92876C5.88859 6.16168 5.64257 6.45219 5.4786 6.77889C5.31463 7.10559 5.23688 7.46017 5.25109 7.81651C5.25205 8.01662 5.28116 8.21587 5.33778 8.40981C5.48158 8.87576 5.70271 9.32094 5.99419 9.73124C6.20449 10.0455 6.43394 10.3498 6.68156 10.6428C7.48631 11.605 8.4979 12.4219 9.66017 13.0483C10.2434 13.3666 10.8668 13.6254 11.5179 13.8196C12.1944 14.0866 12.9412 14.1892 13.6791 14.1162C14.0996 14.0608 14.4979 13.9162 14.8392 13.6952C15.1804 13.4742 15.454 13.1835 15.636 12.8487C15.7429 12.6465 15.7753 12.4204 15.7289 12.2015C15.6174 11.7538 14.93 11.4895 14.5089 11.2738Z" fill="white"/>
</svg>
