<svg width="20" height="19" viewBox="0 0 20 19" fill="none" xmlns="http://www.w3.org/2000/svg">
<path d="M8.89781 9.28383L4.48851 9.28383M18.6402 8.80433C18.7339 8.84808 18.813 8.91624 18.8683 9.00101C18.9236 9.08578 18.9528 9.18374 18.9528 9.2837C18.9527 9.38365 18.9233 9.48157 18.8679 9.56626C18.8124 9.65095 18.7333 9.719 18.6394 9.76263L1.8444 17.5121C1.74398 17.5584 1.63135 17.5747 1.52113 17.5589C1.41091 17.5432 1.30819 17.496 1.22628 17.4236C1.14437 17.3512 1.08706 17.2569 1.06179 17.1529C1.03651 17.0489 1.04444 16.94 1.08453 16.8404L4.04097 9.47464C4.09025 9.35182 4.09025 9.21584 4.04097 9.09301L1.08527 1.72657C1.04553 1.62706 1.03784 1.51841 1.0632 1.41467C1.08856 1.31093 1.14581 1.21686 1.22754 1.14461C1.30928 1.07236 1.41175 1.02526 1.52171 1.00938C1.63167 0.993505 1.74408 1.00958 1.8444 1.05555L18.6402 8.80433Z" stroke="#050505" stroke-width="2" stroke-linecap="round" stroke-linejoin="round"/>
</svg>
