<svg width="21" height="17" viewBox="0 0 21 17" fill="none" xmlns="http://www.w3.org/2000/svg">
<path d="M20.9066 1.96184C20.2273 2.23764 19.5131 2.42969 18.7818 2.53325C19.1237 2.47795 19.6268 1.89732 19.8271 1.66231C20.1313 1.30781 20.3632 0.903115 20.5109 0.46879C20.5109 0.436533 20.5451 0.390451 20.5109 0.367411C20.4937 0.358537 20.4744 0.353887 20.4548 0.353887C20.4351 0.353887 20.4158 0.358537 20.3986 0.367411C19.6044 0.773124 18.7593 1.08278 17.883 1.28905C17.8525 1.29785 17.82 1.29864 17.789 1.29133C17.758 1.28402 17.7297 1.2689 17.7072 1.24757C17.639 1.17095 17.5655 1.0986 17.4874 1.03099C17.13 0.728898 16.7245 0.481651 16.2858 0.298288C15.6935 0.0690669 15.0538 -0.0302037 14.415 0.00797305C13.7951 0.0449066 13.1899 0.201764 12.637 0.46879C12.0925 0.750314 11.614 1.13277 11.2302 1.59318C10.8265 2.06707 10.535 2.61702 10.3754 3.20605C10.2438 3.76633 10.2289 4.34541 10.3315 4.91107C10.3315 5.00784 10.3315 5.02167 10.2435 5.00784C6.76083 4.52398 3.90335 3.35811 1.56852 0.855877C1.46595 0.745281 1.41222 0.745281 1.32918 0.855877C0.313187 2.31206 0.806529 4.61615 2.07652 5.75436C2.24748 5.90643 2.42333 6.0539 2.60894 6.19214C2.02666 6.15314 1.45859 6.00428 0.938413 5.75436C0.840721 5.69446 0.786991 5.72672 0.782106 5.83731C0.76826 5.99064 0.76826 6.1448 0.782106 6.29813C0.884026 7.03295 1.19098 7.72904 1.67159 8.31524C2.15219 8.90143 2.7892 9.35668 3.51747 9.63445C3.69501 9.70619 3.87999 9.76024 4.06943 9.79573C3.53038 9.89585 2.97752 9.91142 2.43309 9.84181C2.31586 9.81877 2.2719 9.87868 2.31586 9.98467C3.0339 11.8279 4.59208 12.3901 5.73507 12.7035C5.89138 12.7265 6.04768 12.7265 6.22353 12.7634C6.22353 12.7634 6.22353 12.7634 6.19422 12.791C5.85719 13.3717 4.49439 13.7634 3.86916 13.9661C2.72796 14.3528 1.51123 14.5007 0.303417 14.3993C0.112919 14.3716 0.0689575 14.3763 0.0201117 14.3993C-0.0287341 14.4223 0.0201117 14.473 0.0738421 14.5191C0.318071 14.6712 0.5623 14.8048 0.816298 14.9338C1.57245 15.3229 2.37186 15.632 3.19997 15.8555C7.48864 16.9707 12.3146 16.1504 15.5335 13.132C18.0638 10.7634 18.9527 7.49625 18.9527 4.22445C18.9527 4.10003 19.1139 4.0263 19.2067 3.96179C19.8469 3.49124 20.4112 2.93554 20.8822 2.31206C20.9637 2.21912 21.0055 2.10079 20.9994 1.98027C20.9994 1.91115 20.9994 1.92497 20.9066 1.96184Z" fill="white"/>
</svg>
