<svg width="15" height="18" viewBox="0 0 15 18" fill="none" xmlns="http://www.w3.org/2000/svg">
<path d="M9.93856 15.6857C9.27652 16.7143 8.44971 17.2286 7.45714 17.2286C6.46458 17.2286 5.63777 16.7143 4.97573 15.6857M12.5043 14.1429H2.40994C2.11995 14.143 1.83513 14.0633 1.58457 13.912C1.33402 13.7607 1.12673 13.5432 0.98389 13.2817C0.841049 13.0202 0.767778 12.724 0.771568 12.4235C0.775359 12.123 0.856073 11.829 1.00546 11.5714C1.9796 9.88896 2.49422 7.96379 2.49431 6.00171V4.88571C2.49431 3.79454 2.91261 2.74805 3.65718 1.97648C4.40174 1.2049 5.4116 0.771429 6.46458 0.771429H8.44971C9.50269 0.771429 10.5125 1.2049 11.2571 1.97648C12.0017 2.74805 12.42 3.79454 12.42 4.88571V6.00171C12.42 7.9632 12.9341 9.88971 13.9088 11.5714C14.0582 11.829 14.1389 12.123 14.1427 12.4235C14.1465 12.724 14.0732 13.0202 13.9304 13.2817C13.7876 13.5432 13.5803 13.7607 13.3297 13.912C13.0792 14.0633 12.7943 14.143 12.5043 14.1429V14.1429Z" stroke="white" stroke-width="1.5" stroke-linecap="round" stroke-linejoin="round"/>
<ellipse cx="11.1212" cy="3.67563" rx="3.02171" ry="2.9042" fill="#FFE600"/>
</svg>
