<svg width="14" height="14" viewBox="0 0 14 14" fill="none" xmlns="http://www.w3.org/2000/svg">
<g clip-path="url(#clip0_0_218)">
<path d="M7.00008 12.8337C3.77833 12.8337 1.16675 10.2221 1.16675 7.00033C1.16675 3.77858 3.77833 1.16699 7.00008 1.16699C10.2218 1.16699 12.8334 3.77858 12.8334 7.00033C12.8334 10.2221 10.2218 12.8337 7.00008 12.8337ZM7.00008 11.667C8.23776 11.667 9.42474 11.1753 10.2999 10.3002C11.1751 9.42499 11.6667 8.238 11.6667 7.00033C11.6667 5.76265 11.1751 4.57566 10.2999 3.70049C9.42474 2.82532 8.23776 2.33366 7.00008 2.33366C5.7624 2.33366 4.57542 2.82532 3.70025 3.70049C2.82508 4.57566 2.33341 5.76265 2.33341 7.00033C2.33341 8.238 2.82508 9.42499 3.70025 10.3002C4.57542 11.1753 5.7624 11.667 7.00008 11.667ZM7.58341 7.00033H9.91675V8.16699H6.41675V4.08366H7.58341V7.00033Z" fill="#4E4B66"/>
</g>
<defs>
<clipPath id="clip0_0_218">
<rect width="14" height="14" fill="white"/>
</clipPath>
</defs>
</svg>
