<svg width="58" height="58" viewBox="0 0 58 58" fill="none" xmlns="http://www.w3.org/2000/svg">
<path d="M0 0V58H58V0H0ZM20.8389 32.712V22.3735C20.8389 18.4827 25.868 16.6146 28.5288 21.1362C28.7221 21.4624 32.9126 28.681 32.9126 28.681V22.3735C32.9126 18.4827 37.9393 16.6146 40.6 21.1362C40.7933 21.4624 44.9838 28.681 44.9838 28.681V18.5745H47.4923V35.5419C47.4987 35.6566 47.4661 35.7701 47.3998 35.864C47.3336 35.9578 47.2376 36.0266 47.1274 36.0591C46.8616 36.1316 46.5813 35.9673 46.3758 35.6193C46.3348 35.5516 44.2008 31.8831 42.1515 28.3378L38.3912 21.8636C37.8643 20.9694 37.0789 20.8123 36.5207 20.9646C36.199 21.0546 35.9165 21.249 35.7174 21.5171C35.5183 21.7853 35.4141 22.1121 35.4211 22.446V35.5419C35.427 35.6565 35.3942 35.7698 35.328 35.8636C35.2619 35.9574 35.1661 36.0262 35.0562 36.0591C34.7879 36.1316 34.5076 35.9673 34.3046 35.6193C34.2683 35.5588 32.2891 32.1489 30.3775 28.8526C27.9415 24.6524 26.3417 21.8974 26.3175 21.8563C25.7907 20.9598 25.0028 20.8051 24.4398 20.9573C24.1179 21.0472 23.835 21.2415 23.6355 21.5097C23.4361 21.7778 23.3313 22.1046 23.3378 22.4388V35.2592C23.3269 35.4297 23.254 35.5904 23.133 35.711C23.0119 35.8316 22.851 35.9038 22.6804 35.9141H16.1723C14.3367 35.9141 12.5762 35.1849 11.2782 33.8869C9.98021 32.5889 9.251 30.8284 9.251 28.9928C9.251 27.1571 9.98021 25.3966 11.2782 24.0986C12.5762 22.8006 14.3367 22.0714 16.1723 22.0714H19.5557V24.5751H16.2013C15.0297 24.5751 13.906 25.0405 13.0776 25.869C12.2491 26.6975 11.7837 27.8211 11.7837 28.9928C11.7837 30.1644 12.2491 31.288 13.0776 32.1165C13.906 32.945 15.0297 33.4104 16.2013 33.4104H20.1478C20.2393 33.4111 20.3301 33.3934 20.4147 33.3585C20.4993 33.3235 20.5761 33.272 20.6405 33.2069C20.7049 33.1418 20.7557 33.0645 20.7897 32.9795C20.8238 32.8945 20.8405 32.8036 20.8389 32.712ZM50.9917 35.6241C50.9917 39.5149 45.9626 41.383 43.3018 36.8638C43.1109 36.5376 38.918 29.3166 38.918 29.3166V35.6241C38.918 39.5149 33.8913 41.383 31.2306 36.8638C31.0373 36.5376 26.8468 29.3166 26.8468 29.3166V35.264C26.8468 37.9634 25.2445 39.4255 22.7384 39.4255H16.1772C13.4122 39.4255 10.7604 38.3271 8.80523 36.3719C6.85007 34.4168 5.75167 31.765 5.75167 29C5.75167 26.235 6.85007 23.5832 8.80523 21.6281C10.7604 19.6729 13.4122 18.5745 16.1772 18.5745H19.5605V21.0782H16.1772C15.1369 21.0782 14.1067 21.2831 13.1456 21.6812C12.1845 22.0793 11.3112 22.6628 10.5756 23.3984C9.83998 24.134 9.25646 25.0073 8.85835 25.9685C8.46024 26.9296 8.25533 27.9597 8.25533 29C8.25533 30.0403 8.46024 31.0704 8.85835 32.0316C9.25646 32.9927 9.83998 33.866 10.5756 34.6016C11.3112 35.3372 12.1845 35.9207 13.1456 36.3188C14.1067 36.7169 15.1369 36.9218 16.1772 36.9218H22.6804C23.117 36.9132 23.5333 36.7361 23.8423 36.4276C24.1513 36.119 24.329 35.703 24.3383 35.2664V22.446C24.3321 22.3316 24.3647 22.2185 24.431 22.125C24.4972 22.0316 24.5932 21.9633 24.7032 21.9313C24.969 21.8588 25.2493 22.0231 25.4548 22.3711L29.5123 29.3625C31.871 33.4298 33.4201 36.1002 33.4394 36.1292C33.9687 37.0233 34.7565 37.1804 35.3196 37.0258C35.6414 36.9356 35.924 36.7407 36.1227 36.472C36.3214 36.2033 36.4249 35.876 36.4168 35.5419V22.4484C36.4101 22.3343 36.442 22.2213 36.5073 22.1276C36.5726 22.0338 36.6676 21.9646 36.7768 21.9313C37.0403 21.8588 37.3182 22.0231 37.5212 22.3711L45.5083 36.1364C45.9215 36.8373 46.4967 37.0862 46.9969 37.0862C47.1284 37.0862 47.2593 37.0683 47.386 37.033C47.712 36.9453 47.999 36.7507 48.2011 36.4803C48.4031 36.2098 48.5084 35.8794 48.5001 35.5419V18.5745H50.9989L50.9917 35.6241Z" fill="#CC0000"/>
</svg>
