<svg width="24" height="24" viewBox="0 0 24 24" fill="none" xmlns="http://www.w3.org/2000/svg">
<g clip-path="url(#clip0_1062_4720)">
<path d="M11.2456 15H4.75361L2.75361 20H0.599609L6.99961 4H8.99961L15.3996 20H13.2456L11.2456 15ZM10.4456 13L7.99961 6.885L5.55361 13H10.4456ZM20.9996 12.535V12H22.9996V20H20.9996V19.465C20.3915 19.8157 19.7018 20.0002 18.9998 20C18.2978 19.9998 17.6083 19.8148 17.0004 19.4637C16.3925 19.1125 15.8878 18.6076 15.5368 17.9996C15.1859 17.3916 15.0012 16.702 15.0012 16C15.0012 15.298 15.1859 14.6084 15.5368 14.0004C15.8878 13.3924 16.3925 12.8875 17.0004 12.5363C17.6083 12.1852 18.2978 12.0002 18.9998 12C19.7018 11.9998 20.3915 12.1843 20.9996 12.535ZM18.9996 18C19.53 18 20.0387 17.7893 20.4138 17.4142C20.7889 17.0391 20.9996 16.5304 20.9996 16C20.9996 15.4696 20.7889 14.9609 20.4138 14.5858C20.0387 14.2107 19.53 14 18.9996 14C18.4692 14 17.9605 14.2107 17.5854 14.5858C17.2103 14.9609 16.9996 15.4696 16.9996 16C16.9996 16.5304 17.2103 17.0391 17.5854 17.4142C17.9605 17.7893 18.4692 18 18.9996 18Z" fill="#4E4B66"/>
</g>
<defs>
<clipPath id="clip0_1062_4720">
<rect width="24" height="24" fill="white"/>
</clipPath>
</defs>
</svg>
