<svg width="20" height="20" viewBox="0 0 20 20" fill="none" xmlns="http://www.w3.org/2000/svg">
<mask id="mask0_0_89" style="mask-type:alpha" maskUnits="userSpaceOnUse" x="0" y="0" width="20" height="20">
<circle cx="10" cy="10" r="10" fill="#CC0000"/>
</mask>
<g mask="url(#mask0_0_89)">
<circle cx="10" cy="10" r="10" fill="#CC0000"/>
<circle cx="10.0003" cy="9.99979" r="7.14286" fill="white"/>
<path d="M1.71387 1.71436V18.2858H18.2853V1.71436H1.71387ZM7.66784 11.0606V8.10678C7.66784 6.99512 9.10473 6.46138 9.86494 7.75326C9.92018 7.84648 11.1175 9.90893 11.1175 9.90893V8.10678C11.1175 6.99512 12.5537 6.46138 13.3139 7.75326C13.3691 7.84648 14.5664 9.90893 14.5664 9.90893V7.02136H15.2831V11.8692C15.2849 11.902 15.2756 11.9344 15.2567 11.9612C15.2378 11.988 15.2103 12.0077 15.1788 12.017C15.1029 12.0377 15.0228 11.9907 14.9641 11.8913C14.9524 11.872 14.3427 10.8238 13.7572 9.81088L12.6828 7.96109C12.5322 7.70562 12.3078 7.66074 12.1483 7.70424C12.0564 7.72995 11.9757 7.78549 11.9188 7.86211C11.862 7.93874 11.8322 8.03209 11.8342 8.1275V11.8692C11.8359 11.9019 11.8265 11.9343 11.8076 11.9611C11.7887 11.9879 11.7613 12.0076 11.7299 12.017C11.6533 12.0377 11.5732 11.9907 11.5152 11.8913C11.5048 11.874 10.9393 10.8998 10.3932 9.95795C9.69715 8.7579 9.24006 7.97076 9.23315 7.95902C9.08263 7.70286 8.85753 7.65867 8.69665 7.70217C8.60469 7.72786 8.52387 7.78337 8.46688 7.85998C8.40989 7.93659 8.37996 8.02996 8.3818 8.12543V11.7884C8.37869 11.8371 8.35788 11.883 8.32329 11.9175C8.28871 11.952 8.24272 11.9726 8.19399 11.9755H6.33453C5.81006 11.9755 5.30707 11.7672 4.93621 11.3963C4.56536 11.0255 4.35701 10.5225 4.35701 9.998C4.35701 9.47353 4.56536 8.97054 4.93621 8.59968C5.30707 8.22882 5.81006 8.02047 6.33453 8.02047H7.3012V8.73581H6.34282C6.00807 8.73581 5.68702 8.86879 5.45032 9.1055C5.21361 9.3422 5.08063 9.66325 5.08063 9.998C5.08063 10.3328 5.21361 10.6538 5.45032 10.8905C5.68702 11.1272 6.00807 11.2602 6.34282 11.2602H7.47037C7.49653 11.2604 7.52246 11.2553 7.54664 11.2453C7.57082 11.2354 7.59276 11.2206 7.61116 11.202C7.62956 11.1834 7.64406 11.1614 7.65379 11.1371C7.66353 11.1128 7.66831 11.0868 7.66784 11.0606ZM16.2829 11.8927C16.2829 13.0043 14.846 13.5381 14.0858 12.2469C14.0313 12.1537 12.8333 10.0905 12.8333 10.0905V11.8927C12.8333 13.0043 11.3971 13.5381 10.6369 12.2469C10.5817 12.1537 9.38437 10.0905 9.38437 10.0905V11.7898C9.38437 12.561 8.92658 12.9788 8.21056 12.9788H6.33592C5.54591 12.9788 4.78826 12.665 4.22965 12.1063C3.67103 11.5477 3.3572 10.7901 3.3572 10.0001C3.3572 9.21007 3.67103 8.45242 4.22965 7.8938C4.78826 7.33518 5.54591 7.02136 6.33592 7.02136H7.30258V7.73669H6.33592C6.03868 7.73669 5.74436 7.79523 5.46976 7.90898C5.19515 8.02272 4.94564 8.18944 4.73546 8.39962C4.52529 8.60979 4.35857 8.85931 4.24482 9.13391C4.13108 9.40852 4.07253 9.70284 4.07253 10.0001C4.07253 10.2973 4.13108 10.5916 4.24482 10.8662C4.35857 11.1408 4.52529 11.3903 4.73546 11.6005C4.94564 11.8107 5.19515 11.9774 5.46976 12.0912C5.74436 12.2049 6.03868 12.2635 6.33592 12.2635H8.19399C8.31872 12.261 8.43767 12.2104 8.52595 12.1222C8.61423 12.0341 8.665 11.9152 8.66765 11.7905V8.1275C8.66588 8.09481 8.67522 8.06249 8.69415 8.03579C8.71308 8.00909 8.74049 7.98958 8.77192 7.98043C8.84787 7.95971 8.92796 8.00667 8.98665 8.10609L10.146 10.1036C10.8199 11.2657 11.2625 12.0287 11.268 12.037C11.4192 12.2925 11.6443 12.3373 11.8052 12.2931C11.8971 12.2674 11.9779 12.2117 12.0346 12.1349C12.0914 12.0582 12.121 11.9646 12.1187 11.8692V8.12819C12.1168 8.09559 12.1259 8.06331 12.1445 8.03651C12.1632 8.00972 12.1903 7.98997 12.2215 7.98043C12.2968 7.95971 12.3762 8.00667 12.4342 8.10609L14.7162 12.039C14.8343 12.2393 14.9986 12.3104 15.1416 12.3104C15.1791 12.3104 15.2165 12.3053 15.2527 12.2952C15.3459 12.2702 15.4279 12.2145 15.4856 12.1373C15.5433 12.06 15.5734 11.9656 15.571 11.8692V7.02136H16.285L16.2829 11.8927Z" fill="#CC0000"/>
</g>
</svg>
