<svg width="21" height="20" viewBox="0 0 21 20" fill="none" xmlns="http://www.w3.org/2000/svg">
<path d="M0 19.7944L1.50794 14.5184C0.291825 12.4632 -0.0945483 10.0649 0.419725 7.76359C0.933998 5.46232 2.31442 3.41246 4.30768 1.99015C6.30095 0.567835 8.77335 -0.131513 11.2712 0.0204324C13.769 0.172378 16.1248 1.16542 17.9061 2.81735C19.6875 4.46927 20.775 6.66926 20.969 9.01362C21.1631 11.358 20.4507 13.6894 18.9626 15.5802C17.4745 17.471 15.3104 18.7942 12.8676 19.307C10.4248 19.8199 7.86705 19.488 5.6637 18.3722L0 19.7944ZM5.93679 16.3979L6.28706 16.5931C7.88299 17.4818 9.74701 17.8495 11.5886 17.639C13.4303 17.4285 15.1461 16.6517 16.4686 15.4295C17.7912 14.2073 18.6463 12.6084 18.9006 10.8821C19.1549 9.15569 18.7941 7.39879 17.8745 5.88514C16.9549 4.37149 15.5282 3.18612 13.8166 2.51376C12.105 1.84139 10.2047 1.7198 8.41186 2.16793C6.61903 2.61606 5.03435 3.60873 3.90477 4.99126C2.77519 6.37379 2.16417 8.06852 2.16693 9.81133C2.16543 11.2564 2.59085 12.6735 3.39584 13.9049L3.6155 14.2451L2.77248 17.1899L5.93679 16.3979Z" fill="white"/>
<path fill-rule="evenodd" clip-rule="evenodd" d="M14.5091 11.2734C14.2949 11.123 14.0441 11.0171 13.7758 10.9638C13.5076 10.9105 13.2288 10.9113 12.9609 10.966C12.5584 11.1116 12.2983 11.6618 12.0382 11.9369C11.9834 12.0028 11.9028 12.049 11.8116 12.0669C11.7204 12.0848 11.6248 12.0731 11.5428 12.0339C10.0692 11.5312 8.83399 10.6093 8.03782 9.41802C7.96992 9.34368 7.93778 9.24929 7.94817 9.15472C7.95857 9.06015 8.01069 8.97279 8.09356 8.91102C8.38364 8.6609 8.59663 8.3511 8.71282 8.01028C8.73862 7.63435 8.63973 7.25989 8.42796 6.93155C8.26424 6.47123 7.95266 6.06135 7.53003 5.75034C7.31205 5.66495 7.07036 5.63632 6.83411 5.6679C6.59787 5.69949 6.37716 5.78993 6.19862 5.92833C5.88866 6.16125 5.64264 6.45176 5.47866 6.77847C5.31469 7.10518 5.23694 7.45976 5.25115 7.81611C5.25211 8.01622 5.28122 8.21547 5.33785 8.40941C5.48164 8.87537 5.70278 9.32055 5.99426 9.73085C6.20456 10.0452 6.43402 10.3494 6.68164 10.6424C7.4864 11.6046 8.498 12.4216 9.66029 13.048C10.2435 13.3663 10.8669 13.6251 11.5181 13.8192C12.1945 14.0863 12.9413 14.1888 13.6793 14.1159C14.0997 14.0605 14.4981 13.9159 14.8393 13.6949C15.1806 13.4738 15.4542 13.1831 15.6362 12.8484C15.7431 12.6462 15.7755 12.4201 15.729 12.2011C15.6176 11.7535 14.9302 11.4892 14.5091 11.2734Z" fill="white"/>
</svg>
