<svg width="21" height="17" viewBox="0 0 21 17" fill="none" xmlns="http://www.w3.org/2000/svg">
<path d="M20.907 1.96187C20.2276 2.23768 19.5135 2.42974 18.7821 2.5333C19.124 2.478 19.6272 1.89736 19.8274 1.66234C20.1317 1.30783 20.3636 0.903131 20.5113 0.468799C20.5113 0.436541 20.5455 0.390458 20.5113 0.367417C20.4941 0.358544 20.4747 0.353894 20.4551 0.353894C20.4355 0.353894 20.4162 0.358544 20.3989 0.367417C19.6048 0.773138 18.7596 1.0828 17.8833 1.28907C17.8528 1.29787 17.8203 1.29866 17.7893 1.29135C17.7583 1.28405 17.73 1.26892 17.7075 1.24759C17.6393 1.17097 17.5659 1.09862 17.4877 1.03101C17.1303 0.728911 16.7248 0.48166 16.2861 0.298293C15.6938 0.0690681 15.0541 -0.0302043 14.4152 0.00797319C13.7953 0.0449074 13.1901 0.201768 12.6372 0.468799C12.0927 0.750327 11.6142 1.13279 11.2304 1.59321C10.8267 2.0671 10.5352 2.61706 10.3756 3.2061C10.244 3.7664 10.2291 4.34549 10.3316 4.91116C10.3316 5.00793 10.3316 5.02175 10.2437 5.00793C6.76095 4.52406 3.90342 3.35817 1.56855 0.855892C1.46597 0.745294 1.41224 0.745294 1.3292 0.855892C0.313192 2.3121 0.806544 4.61623 2.07656 5.75447C2.24752 5.90654 2.42337 6.054 2.60899 6.19225C2.02669 6.15325 1.45862 6.00438 0.93843 5.75447C0.840736 5.69456 0.787005 5.72682 0.78212 5.83742C0.768273 5.99075 0.768273 6.14491 0.78212 6.29824C0.884042 7.03307 1.191 7.72918 1.67162 8.31538C2.15223 8.90159 2.78925 9.35685 3.51753 9.63462C3.69507 9.70636 3.88006 9.76041 4.0695 9.79591C3.53044 9.89603 2.97757 9.9116 2.43314 9.84199C2.31591 9.81895 2.27194 9.87886 2.31591 9.98484C3.03395 11.8281 4.59216 12.3904 5.73517 12.7037C5.89148 12.7268 6.04779 12.7268 6.22364 12.7636C6.22364 12.7636 6.22364 12.7636 6.19433 12.7913C5.85729 13.3719 4.49447 13.7636 3.86923 13.9664C2.72801 14.3531 1.51126 14.5009 0.303423 14.3996C0.112921 14.3719 0.0689588 14.3765 0.0201121 14.3996C-0.0287346 14.4226 0.0201121 14.4733 0.0738434 14.5194C0.318077 14.6714 0.56231 14.8051 0.816313 14.9341C1.57248 15.3232 2.3719 15.6323 3.20003 15.8558C7.48877 16.971 12.3148 16.1507 15.5338 13.1323C18.0641 10.7636 18.9531 7.49639 18.9531 4.22453C18.9531 4.1001 19.1143 4.02637 19.2071 3.96186C19.8472 3.4913 20.4116 2.93559 20.8825 2.3121C20.9641 2.21916 21.0059 2.10083 20.9998 1.98031C20.9998 1.91118 20.9998 1.92501 20.907 1.96187Z" fill="white"/>
</svg>
